<svg width="96" height="96" viewBox="0 0 96 96" fill="none" xmlns="http://www.w3.org/2000/svg">
<rect width="96" height="96" rx="48" fill="#E3F3F0"/>
<path d="M62 30H34C31.8 30 30 31.8 30 34V62C30 64.2 31.8 66 34 66H62C64.2 66 66 64.2 66 62V34C66 31.8 64.2 30 62 30ZM62 62H34V34H62V62Z" fill="#1F725E"/>
<path d="M46.5 39.44H36.5V42.44H46.5V39.44Z" fill="#1F725E"/>
<path d="M60 55.5H50V58.5H60V55.5Z" fill="#1F725E"/>
<path d="M60 50.5H50V53.5H60V50.5Z" fill="#1F725E"/>
<path d="M40 60H43V56H47V53H43V49H40V53H36V56H40V60Z" fill="#1F725E"/>
<path d="M52.18 45.9L55 43.08L57.82 45.9L59.94 43.78L57.12 40.94L59.94 38.12L57.82 36L55 38.82L52.18 36L50.06 38.12L52.88 40.94L50.06 43.78L52.18 45.9Z" fill="#1F725E"/>
</svg>
