<svg width="40" height="52" viewBox="0 0 40 52" fill="none" xmlns="http://www.w3.org/2000/svg">
<path d="M5.50004 51.5052C4.21671 51.5052 3.1181 51.0483 2.20421 50.1344C1.29032 49.2205 0.833374 48.1219 0.833374 46.8385V4.83854C0.833374 3.55521 1.29032 2.4566 2.20421 1.54271C3.1181 0.628819 4.21671 0.171875 5.50004 0.171875H28.8334C30.1167 0.171875 31.2153 0.628819 32.1292 1.54271C33.0431 2.4566 33.5 3.55521 33.5 4.83854V14.1719H28.8334V11.8385H5.50004V39.8385H28.8334V37.5052H33.5V46.8385C33.5 48.1219 33.0431 49.2205 32.1292 50.1344C31.2153 51.0483 30.1167 51.5052 28.8334 51.5052H5.50004ZM5.50004 44.5052V46.8385H28.8334V44.5052H5.50004ZM26.3834 35.1719L16.4667 25.2552L19.7334 21.9885L26.3834 28.6385L39.5667 15.4552L42.8334 18.7219L26.3834 35.1719ZM5.50004 7.17188H28.8334V4.83854H5.50004V7.17188Z" fill="#4EAC70"/>
</svg>
