<svg width="56" height="56" viewBox="0 0 56 56" fill="none" xmlns="http://www.w3.org/2000/svg">
<path d="M28.9861 5.21509C30.0107 5.21601 31.0311 5.34565 32.0235 5.60093C34.3389 6.12376 37.3514 6.99512 40.0776 6.47228C40.2923 7.89139 39.9142 9.33623 39.0319 10.4683C40.4523 12.5154 41.2125 14.9479 41.2104 17.4394V23.838H16.7617V17.402C16.7823 10.6651 22.2491 5.21474 28.9861 5.21509Z" fill="#A86C4D"/>
<path d="M28.9861 5.21509C30.0107 5.21601 31.0311 5.34565 32.0235 5.60093C34.3389 6.12376 37.3515 6.99512 40.0776 6.47228C40.2462 7.77805 39.9462 9.10139 39.2312 10.2069C36.7928 10.2448 34.3627 9.91326 32.0235 9.22346C24.2888 7.22846 16.7529 13.0741 16.7617 21.0619V17.402C16.7823 10.6651 22.2492 5.21474 28.9861 5.21509Z" fill="#DE926A"/>
<path d="M28.9861 5.21509C30.0107 5.21601 31.0311 5.34565 32.0235 5.60093C34.3389 6.12376 37.3514 6.99512 40.0776 6.47228C40.2923 7.89139 39.9142 9.33623 39.0319 10.4683C40.4523 12.5154 41.2125 14.9479 41.2104 17.4394V23.838H16.7617V17.402C16.7823 10.6651 22.2491 5.21474 28.9861 5.21509Z" stroke="#45413C" stroke-width="0.88" stroke-linecap="round" stroke-linejoin="round"/>
<path d="M15.4551 22.8669C15.5789 21.9311 16.2671 21.1686 17.1855 20.9499L17.9199 20.7507C19.0323 20.4365 19.797 19.4169 19.7871 18.261V15.7215C19.79 14.6662 20.4987 13.7434 21.5175 13.4684C23.8913 14.416 26.4311 14.8774 28.9865 14.8253C31.5419 14.8774 34.0818 14.416 36.4556 13.4684C37.4794 13.7387 38.1941 14.6627 38.1983 15.7215V18.2859C38.1886 19.4418 38.9533 20.4614 40.0657 20.7756L40.8001 20.9748C41.7183 21.1936 42.4065 21.9561 42.5304 22.8918C42.6715 24.2273 41.6203 25.3889 40.2773 25.3815H40.1901C39.2824 33.9581 29.4305 38.3358 22.4569 33.2613C19.894 31.3964 18.2411 28.5334 17.9074 25.3815H17.7705C16.3916 25.4291 15.2943 24.2372 15.4551 22.8669Z" fill="#FFCEBF" stroke="#45413C" stroke-width="0.88" stroke-linecap="round" stroke-linejoin="round"/>
<path d="M35.7457 22.6429C35.7457 23.3807 34.9469 23.8419 34.3079 23.4729C33.6689 23.1041 33.6689 22.1818 34.3079 21.8128C34.4536 21.7286 34.6189 21.6844 34.7872 21.6844C35.3195 21.6773 35.7527 22.1106 35.7457 22.6429Z" fill="#45413C" stroke="#45413C" stroke-width="0.88" stroke-linecap="round" stroke-linejoin="round"/>
<path d="M22.2266 22.6429C22.2266 23.3807 23.0254 23.8419 23.6644 23.4729C24.3034 23.1041 24.3034 22.1818 23.6644 21.8128C23.5186 21.7286 23.3534 21.6844 23.1852 21.6844C22.6529 21.6773 22.2195 22.1106 22.2266 22.6429Z" fill="#45413C" stroke="#45413C" stroke-width="0.88" stroke-linecap="round" stroke-linejoin="round"/>
<path d="M32.5217 28.4438C32.6811 28.4473 32.8311 28.52 32.9325 28.6431C33.038 28.7618 33.0838 28.9221 33.057 29.0788C32.5069 32.2123 28.7709 33.5753 26.3322 31.5322C25.5858 30.9068 25.0841 30.0379 24.9157 29.0788C24.8889 28.9221 24.9347 28.7618 25.0402 28.6431C25.1394 28.5172 25.2908 28.4438 25.451 28.4438H32.5217Z" fill="#FF6242"/>
<path d="M28.9861 30.1118C30.1101 30.0679 31.2157 30.4057 32.1231 31.0704C30.4611 32.9212 27.5609 32.9212 25.8989 31.0704C26.7928 30.4165 27.8791 30.0791 28.9861 30.1118Z" fill="#FFA694"/>
<path d="M32.5217 28.4438C32.6811 28.4473 32.8311 28.52 32.9325 28.6431C33.038 28.7618 33.0838 28.9221 33.057 29.0788C32.5069 32.2123 28.7709 33.5753 26.3322 31.5322C25.5858 30.9068 25.0841 30.0379 24.9157 29.0788C24.8889 28.9221 24.9347 28.7618 25.0402 28.6431C25.1394 28.5172 25.2908 28.4438 25.451 28.4438H32.5217Z" stroke="#45413C" stroke-width="0.88" stroke-linecap="round" stroke-linejoin="round"/>
<path d="M35.1357 26.6886C35.1357 27.2635 36.1731 27.6228 37.003 27.3354C37.3882 27.202 37.6254 26.9554 37.6254 26.6886C37.6254 26.1136 36.588 25.7543 35.7581 26.0417C35.373 26.1751 35.1357 26.4217 35.1357 26.6886Z" fill="#FFB59E"/>
<path d="M20.3472 26.6886C20.3472 27.2635 21.3845 27.6228 22.2144 27.3354C22.5995 27.202 22.8368 26.9554 22.8368 26.6886C22.8368 26.1136 21.7995 25.7543 20.9696 26.0417C20.5844 26.1751 20.3472 26.4217 20.3472 26.6886Z" fill="#FFB59E"/>
<path d="M19.8619 9.8209C20.7246 9.21539 20.6083 7.90284 19.6525 7.45844C19.461 7.36933 19.2514 7.32581 19.0402 7.3312H18.0568C17.8438 7.34005 17.6728 7.15735 17.6958 6.94536L17.9822 4.06971C18.1959 2.40646 16.5289 1.13549 14.9816 1.782C14.8602 1.83264 14.7437 1.8943 14.6335 1.96596C14.1133 2.37063 13.4606 2.56596 12.8036 2.51372C11.9991 2.42667 11.2604 2.96581 11.0981 3.75851C10.3555 7.30135 10.0503 10.9218 10.1895 14.5388L16.2393 14.9746L16.3887 12.3978L19.8619 9.8209Z" fill="#FFCEBF"/>
<path d="M12.2431 4.90377C12.982 4.98289 13.7245 4.79285 14.3345 4.36854C15.5361 3.5755 17.1578 3.96375 17.8699 5.21509L17.9819 4.10718C18.1956 2.44381 16.5287 1.17284 14.9813 1.81935C14.86 1.87011 14.7435 1.93166 14.6333 2.00331C14.1078 2.39478 13.4555 2.57668 12.8033 2.51375C11.9989 2.4267 11.2602 2.96585 11.0979 3.75854C10.9983 4.29389 10.9236 4.81673 10.8364 5.33957C11.2205 4.99805 11.7334 4.83924 12.2431 4.90377Z" fill="#FFDCD1"/>
<path d="M19.8619 9.8209C20.7246 9.21539 20.6083 7.90284 19.6525 7.45844C19.461 7.36933 19.2514 7.32581 19.0402 7.3312H18.0568C17.8438 7.34005 17.6728 7.15735 17.6958 6.94536L17.9822 4.06971C18.1959 2.40646 16.5289 1.13549 14.9816 1.782C14.8602 1.83264 14.7437 1.8943 14.6335 1.96596C14.1133 2.37063 13.4606 2.56596 12.8036 2.51372C11.9991 2.42667 11.2604 2.96581 11.0981 3.75851C10.3555 7.30135 10.0503 10.9218 10.1895 14.5388L16.2393 14.9746L16.3887 12.3978L19.8619 9.8209Z" stroke="#45413C" stroke-width="0.88" stroke-linecap="round" stroke-linejoin="round"/>
<path opacity="0.15" d="M10.3135 53.1415C10.3021 54.579 25.8557 55.4786 38.3097 54.7609C44.0987 54.4272 47.6639 53.8097 47.6588 53.1415C47.67 51.7041 32.1165 50.8045 19.6624 51.5222C13.8734 51.8558 10.3082 52.4734 10.3135 53.1415Z" fill="#45413C"/>
<path d="M29.173 35.3651C27.4002 35.3392 25.6373 35.6344 23.9695 36.2365C21.6388 37.1362 19.0312 35.8893 18.2682 33.5103C16.4024 27.2109 15.9058 20.5854 16.8117 14.0782H9.268C8.86184 19.7974 8.86184 25.538 9.268 31.2571C9.73974 38.5712 11.4225 45.7562 14.2473 52.5191H43.7751V50.6393C43.8676 42.4257 37.3825 35.642 29.173 35.3651Z" fill="#00B8F0"/>
<path d="M29.1729 35.3651C27.4001 35.3392 25.6371 35.6344 23.9694 36.2365C21.6386 37.1362 19.0311 35.8894 18.268 33.5104C17.167 29.9613 16.5434 26.2817 16.4133 22.5681C16.1703 27.6416 16.7976 32.7192 18.268 37.581C19.0295 39.981 21.6653 41.2331 24.0067 40.3071C25.6745 39.705 27.4374 39.4098 29.2102 39.4358C36.568 39.6795 42.6657 45.2184 43.613 52.5191H43.7749V50.6394C43.8675 42.4257 37.3824 35.642 29.1729 35.3651Z" fill="#009FD9"/>
<path d="M29.173 35.3651C27.4002 35.3392 25.6373 35.6344 23.9695 36.2365C21.6388 37.1362 19.0312 35.8893 18.2682 33.5103C16.4024 27.2109 15.9058 20.5854 16.8117 14.0782H9.268C8.86184 19.7974 8.86184 25.538 9.268 31.2571C9.73974 38.5712 11.4225 45.7562 14.2473 52.5191H43.7751V50.6393C43.8676 42.4257 37.3825 35.642 29.173 35.3651Z" stroke="#45413C" stroke-width="0.88" stroke-linecap="round" stroke-linejoin="round"/>
<path d="M28.9862 34.917C27.9154 34.9178 26.8503 34.7627 25.8242 34.4564V37.1204C25.8242 39.5544 28.4592 41.0758 30.5672 39.8588C31.5454 39.2939 32.1481 38.2501 32.1481 37.1204V34.4564C31.1221 34.7627 30.0569 34.9178 28.9862 34.917Z" fill="#FFCEBF"/>
<path d="M28.9862 34.917C27.9154 34.9178 26.8503 34.7627 25.8242 34.4564C25.8242 36.8905 28.4592 38.4117 30.5672 37.1947C31.5454 36.6299 32.1481 35.5862 32.1481 34.4564C31.1221 34.7627 30.0569 34.9178 28.9862 34.917Z" fill="#FFB59E"/>
<path d="M28.9862 34.917C27.9154 34.9178 26.8503 34.7627 25.8242 34.4564V37.1204C25.8242 39.5544 28.4592 41.0758 30.5672 39.8588C31.5454 39.2939 32.1481 38.2501 32.1481 37.1204V34.4564C31.1221 34.7627 30.0569 34.9178 28.9862 34.917Z" stroke="#45413C" stroke-width="0.88" stroke-linecap="round" stroke-linejoin="round"/>
</svg>
