<svg width="112" height="112" viewBox="0 0 112 112" fill="none" xmlns="http://www.w3.org/2000/svg">
<path d="M10.0625 50.2578C10.0625 56.2904 11.2507 62.2639 13.5593 67.8373C15.8679 73.4107 19.2516 78.4748 23.5173 82.7405C27.783 87.0062 32.8471 90.39 38.4205 92.6985C43.9939 95.0071 49.9674 96.1953 56 96.1953C62.0326 96.1953 68.0061 95.0071 73.5795 92.6985C79.1529 90.39 84.217 87.0062 88.4827 82.7405C92.7484 78.4748 96.1321 73.4107 98.4407 67.8373C100.749 62.2639 101.938 56.2904 101.938 50.2578C101.938 44.2252 100.749 38.2517 98.4407 32.6783C96.1321 27.1049 92.7484 22.0408 88.4827 17.7751C84.217 13.5094 79.1529 10.1257 73.5795 7.8171C68.0061 5.50852 62.0326 4.32031 56 4.32031C49.9674 4.32031 43.9939 5.50852 38.4205 7.8171C32.8471 10.1257 27.783 13.5094 23.5173 17.7751C19.2516 22.0408 15.8679 27.1049 13.5593 32.6783C11.2507 38.2517 10.0625 44.2252 10.0625 50.2578Z" fill="#FFE500"/>
<path d="M56 4.32031C46.9144 4.32031 38.0329 7.0145 30.4785 12.0622C22.9241 17.1099 17.0362 24.2843 13.5593 32.6783C10.0824 41.0723 9.17266 50.3088 10.9452 59.2198C12.7177 68.1308 17.0928 76.3161 23.5173 82.7405C29.9417 89.165 38.127 93.5401 47.038 95.3126C55.949 97.0851 65.1855 96.1754 73.5795 92.6985C81.9735 89.2216 89.1479 83.3337 94.1956 75.7793C99.2433 68.2249 101.937 59.3434 101.937 50.2578C101.937 38.0744 97.0977 26.39 88.4827 17.7751C79.8678 9.16014 68.1834 4.32031 56 4.32031ZM56 89.3047C47.7094 89.3047 39.605 86.8462 32.7116 82.2402C25.8182 77.6342 20.4455 71.0875 17.2728 63.428C14.1002 55.7685 13.27 47.3402 14.8875 39.2089C16.5049 31.0776 20.4972 23.6086 26.3595 17.7462C32.2218 11.8839 39.6909 7.89161 47.8222 6.27419C55.9535 4.65678 64.3818 5.48689 72.0413 8.65957C79.7008 11.8322 86.2475 17.205 90.8535 24.0983C95.4595 30.9917 97.918 39.0961 97.918 47.3867C97.918 58.5041 93.5016 69.1661 85.6405 77.0272C77.7793 84.8883 67.1173 89.3047 56 89.3047Z" fill="#EBCB00"/>
<path opacity="0.15" d="M19.25 105.383C19.25 106.297 23.1219 107.173 30.0138 107.819C36.9058 108.465 46.2533 108.828 56 108.828C65.7467 108.828 75.0942 108.465 81.9862 107.819C88.8781 107.173 92.75 106.297 92.75 105.383C92.75 104.469 88.8781 103.593 81.9862 102.947C75.0942 102.3 65.7467 101.938 56 101.938C46.2533 101.938 36.9058 102.3 30.0138 102.947C23.1219 103.593 19.25 104.469 19.25 105.383Z" fill="#45413C"/>
<path d="M10.0625 50.2578C10.0625 56.2904 11.2507 62.2639 13.5593 67.8373C15.8679 73.4107 19.2516 78.4748 23.5173 82.7405C27.783 87.0062 32.8471 90.39 38.4205 92.6985C43.9939 95.0071 49.9674 96.1953 56 96.1953C62.0326 96.1953 68.0061 95.0071 73.5795 92.6985C79.1529 90.39 84.217 87.0062 88.4827 82.7405C92.7484 78.4748 96.1321 73.4107 98.4407 67.8373C100.749 62.2639 101.938 56.2904 101.938 50.2578C101.938 44.2252 100.749 38.2517 98.4407 32.6783C96.1321 27.1049 92.7484 22.0408 88.4827 17.7751C84.217 13.5094 79.1529 10.1257 73.5795 7.8171C68.0061 5.50852 62.0326 4.32031 56 4.32031C49.9674 4.32031 43.9939 5.50852 38.4205 7.8171C32.8471 10.1257 27.783 13.5094 23.5173 17.7751C19.2516 22.0408 15.8679 27.1049 13.5593 32.6783C11.2507 38.2517 10.0625 44.2252 10.0625 50.2578Z" stroke="#45413C" stroke-width="1.75" stroke-linecap="round" stroke-linejoin="round"/>
<path d="M67.4844 68.5859C64.085 70.8573 60.0884 72.0696 56 72.0696C51.9116 72.0696 47.915 70.8573 44.5156 68.5859" stroke="#45413C" stroke-width="1.75" stroke-linecap="round"/>
<path d="M34.1797 47.9609C34.1797 48.4152 34.045 48.8593 33.7926 49.237C33.5402 49.6147 33.1815 49.9091 32.7618 50.083C32.3421 50.2568 31.8803 50.3023 31.4347 50.2137C30.9892 50.1251 30.5799 49.9063 30.2587 49.5851C29.9375 49.2638 29.7187 48.8546 29.6301 48.409C29.5414 47.9635 29.5869 47.5017 29.7608 47.082C29.9346 46.6623 30.229 46.3035 30.6067 46.0512C30.9845 45.7988 31.4285 45.6641 31.8828 45.6641C32.492 45.6641 33.0762 45.9061 33.5069 46.3368C33.9377 46.7676 34.1797 47.3518 34.1797 47.9609Z" fill="#45413C" stroke="#45413C" stroke-width="1.75" stroke-linecap="round" stroke-linejoin="round"/>
<path d="M77.8203 47.9609C77.8203 48.4152 77.955 48.8593 78.2074 49.237C78.4598 49.6147 78.8185 49.9091 79.2382 50.083C79.6579 50.2568 80.1197 50.3023 80.5653 50.2137C81.0108 50.1251 81.4201 49.9063 81.7413 49.5851C82.0625 49.2638 82.2813 48.8546 82.3699 48.409C82.4586 47.9635 82.4131 47.5017 82.2392 47.082C82.0654 46.6623 81.771 46.3035 81.3933 46.0512C81.0155 45.7988 80.5715 45.6641 80.1172 45.6641C79.508 45.6641 78.9238 45.9061 78.493 46.3368C78.0623 46.7676 77.8203 47.3518 77.8203 47.9609Z" fill="#45413C" stroke="#45413C" stroke-width="1.75" stroke-linecap="round" stroke-linejoin="round"/>
<path d="M89.3047 61.7422C89.3047 63.6486 86.7322 65.1875 83.5625 65.1875C80.3928 65.1875 77.8203 63.6486 77.8203 61.7422C77.8203 59.8358 80.3928 58.2969 83.5625 58.2969C86.7322 58.2969 89.3047 59.8358 89.3047 61.7422Z" fill="#FFAA54"/>
<path d="M22.6953 61.7422C22.6953 63.6486 25.2678 65.1875 28.4375 65.1875C31.6072 65.1875 34.1797 63.6486 34.1797 61.7422C34.1797 59.8358 31.6072 58.2969 28.4375 58.2969C25.2678 58.2969 22.6953 59.8358 22.6953 61.7422Z" fill="#FFAA54"/>
<path d="M42.2188 13.5078C42.2188 14.4216 43.6707 15.2979 46.2552 15.944C48.8397 16.5901 52.345 16.9531 56 16.9531C59.655 16.9531 63.1603 16.5901 65.7448 15.944C68.3293 15.2979 69.7812 14.4216 69.7812 13.5078C69.7812 12.5941 68.3293 11.7177 65.7448 11.0716C63.1603 10.4255 59.655 10.0625 56 10.0625C52.345 10.0625 48.8397 10.4255 46.2552 11.0716C43.6707 11.7177 42.2188 12.5941 42.2188 13.5078Z" fill="#FFF48C"/>
</svg>
